*
*
G04 PADS 9.5 Build Number: 522968 generated Gerber (RS-274-X) file*
G04 PC Version=2.1*
*
%IN "TP5copia2.pcb"*%
*
%MOIN*%
*
%FSLAX35Y35*%
*
*
*
*
G04 PC Standard Apertures*
*
*
G04 Thermal Relief Aperture macro.*
%AMTER*
1,1,$1,0,0*
1,0,$1-$2,0,0*
21,0,$3,$4,0,0,45*
21,0,$3,$4,0,0,135*
%
*
*
G04 Annular Aperture macro.*
%AMANN*
1,1,$1,0,0*
1,0,$2,0,0*
%
*
*
G04 Odd Aperture macro.*
%AMODD*
1,1,$1,0,0*
1,0,$1-0.005,0,0*
%
*
*
G04 PC Custom Aperture Macros*
*
*
*
*
*
*
G04 PC Aperture Table*
*
%ADD010C,0.001*%
%ADD012C,0.07*%
%ADD016R,0.06X0.06*%
%ADD017C,0.06*%
%ADD018C,0.15*%
%ADD019C,0.19*%
%ADD020C,0.03*%
%ADD021C,0.01*%
%ADD022C,0.015*%
*
*
*
*
G04 PC Circuitry*
G04 Layer Name TP5copia2.pcb - circuitry*
%LPD*%
*
*
G04 PC Custom Flashes*
G04 Layer Name TP5copia2.pcb - flashes*
%LPD*%
*
*
G04 PC Circuitry*
G04 Layer Name TP5copia2.pcb - circuitry*
%LPD*%
*
G54D10*
G54D12*
G01X320000Y290000D03*
X310000Y300000D03*
X300000Y290000D03*
Y130000D03*
X310000Y120000D03*
X320000Y130000D03*
G54D16*
X150000Y170000D03*
Y300000D03*
X170000D03*
Y170000D03*
X250000Y230000D03*
X240000D03*
Y150000D03*
X280000Y230000D03*
X270000Y250000D03*
Y120000D03*
X360000Y230000D03*
Y150000D03*
X430000Y300000D03*
Y170000D03*
X380000Y180000D03*
X210000Y250000D03*
Y190000D03*
X410000Y280000D03*
Y160000D03*
X380000Y250000D03*
G54D17*
X150000Y120000D03*
Y250000D03*
X170000D03*
Y120000D03*
X250000Y190000D03*
X240000Y270000D03*
Y190000D03*
X280000D03*
X270000Y300000D03*
Y170000D03*
X360000Y270000D03*
Y190000D03*
X430000Y250000D03*
Y120000D03*
X270000Y190000D03*
Y230000D03*
X260000Y190000D03*
Y230000D03*
X370000Y290000D03*
X330000D03*
Y130000D03*
X370000D03*
X380000Y170000D03*
Y160000D03*
X210000Y225000D03*
Y165000D03*
X190000Y290000D03*
X230000D03*
Y130000D03*
X190000D03*
X410000Y255000D03*
Y135000D03*
X340000Y240000D03*
Y220000D03*
Y200000D03*
Y180000D03*
Y270000D03*
Y250000D03*
Y170000D03*
Y150000D03*
X380000Y260000D03*
Y270000D03*
G54D18*
X140000Y190000D03*
Y210000D03*
Y230000D03*
X450000D03*
Y210000D03*
Y190000D03*
G54D19*
X310000Y225000D03*
Y195000D03*
G54D20*
X299859Y131995D02*
G75*
G03X304596Y134596I-2100J9438D01*
X301995Y129859I6837J-6837*
G01X304596Y134596D02*
X301414Y131414D01*
X336553Y146553D02*
G03X338504Y150105I-5128J5128D01*
G01X340105Y148504D02*
G03X336553Y146553I1576J-7079D01*
G01X300000Y130000D02*
X310000Y140000D01*
X330000*
X340000Y150000*
X270000Y194875D02*
G03X271133Y190983I7252J0D01*
G01X268867D02*
G03X270000Y194875I-6119J3892D01*
G01Y195000D02*
Y190000D01*
X335125Y170000D02*
G03X339017Y171133I0J7252D01*
G01Y168867D02*
G03X335125Y170000I-3892J-6119D01*
G01X270000Y195000D02*
X275000Y200000D01*
X285000*
X290000Y195000*
Y170000*
X340000*
X239895Y151496D02*
G03X243447Y153447I-1576J7079D01*
X241496Y149895I5128J-5128*
G01X281133Y189017D02*
G03X280000Y185125I6119J-3892D01*
X278867Y189017I-7252J0*
G01X240000Y150000D02*
X250000Y160000D01*
X270000*
X280000Y170000*
Y190000*
X250000Y194875D02*
G03X251133Y190983I7252J0D01*
G01X248867D02*
G03X250000Y194875I-6119J3892D01*
G01Y190000D02*
Y195000D01*
X255000Y200000*
X260000*
X265000*
X270000Y195000*
X340983Y151133D02*
G03X344875Y150000I3892J6119D01*
X340983Y148867I0J-7252*
G01X355125Y150000D02*
G03X359017Y151133I0J7252D01*
G01Y148867D02*
G03X355125Y150000I-3892J-6119D01*
G01X340000D02*
X360000D01*
X340983Y171133D02*
G03X344875Y170000I3892J6119D01*
X340983Y168867I0J-7252*
G01X375125Y170000D02*
G03X379017Y171133I0J7252D01*
G01Y168867D02*
G03X375125Y170000I-3892J-6119D01*
G01X340000D02*
X380000D01*
X361133Y149017D02*
G03X360000Y145125I6119J-3892D01*
X358867Y149017I-7252J0*
G01X366553Y133447D02*
G03X370105Y131496I5128J5128D01*
G01X368504Y129895D02*
G03X366553Y133447I-7079J-1576D01*
G01X360000Y150000D02*
Y140000D01*
X370000Y130000*
X360983Y151133D02*
G03X364875Y150000I3892J6119D01*
X360983Y148867I0J-7252*
G01X376553Y156553D02*
G03X378504Y160105I-5128J5128D01*
G01X380105Y158504D02*
G03X376553Y156553I1576J-7079D01*
G01X360000Y150000D02*
X370000D01*
X380000Y160000*
X261133Y229017D02*
G03X260000Y225125I6119J-3892D01*
X258867Y229017I-7252J0*
G01X281133D02*
G03X280000Y225125I6119J-3892D01*
X278867Y229017I-7252J0*
G01X260000Y230000D02*
Y225000D01*
X265000Y220000*
X275000*
X280000Y225000*
Y230000*
X279895Y231496D02*
G03X283447Y233447I-1576J7079D01*
X281496Y229895I5128J-5128*
G01X376553Y246553D02*
G03X378504Y250105I-5128J5128D01*
G01X380105Y248504D02*
G03X376553Y246553I1576J-7079D01*
G01X280000Y230000D02*
X290000Y240000D01*
X330000*
X350000Y220000*
X360000*
X370000Y230000*
Y240000*
X380000Y250000*
X241133Y269017D02*
G03X240000Y265125I6119J-3892D01*
X238867Y269017I-7252J0*
G01X250000Y234875D02*
G03X251133Y230983I7252J0D01*
G01X248867D02*
G03X250000Y234875I-6119J3892D01*
G01X240000Y270000D02*
Y250000D01*
X250000Y240000*
Y230000*
X321995Y290141D02*
G03X324596Y285404I9438J2100D01*
X319859Y288005I-6837J-6837*
G01X324596Y285404D02*
X321414Y288586D01*
X336553Y273447D02*
G03X340105Y271496I5128J5128D01*
G01X338504Y269895D02*
G03X336553Y273447I-7079J-1576D01*
G01X320000Y290000D02*
X340000Y270000D01*
X340983Y251133D02*
G03X344875Y250000I3892J6119D01*
X340983Y248867I0J-7252*
G01X375125Y250000D02*
G03X379017Y251133I0J7252D01*
G01Y248867D02*
G03X375125Y250000I-3892J-6119D01*
G01X340000D02*
X380000D01*
X340983Y271133D02*
G03X344875Y270000I3892J6119D01*
X340983Y268867I0J-7252*
G01X355125Y270000D02*
G03X359017Y271133I0J7252D01*
G01Y268867D02*
G03X355125Y270000I-3892J-6119D01*
G01X340000D02*
X360000D01*
X359895Y271496D02*
G03X363447Y273447I-1576J7079D01*
X361496Y269895I5128J-5128*
G01X371133Y289017D02*
G03X370000Y285125I6119J-3892D01*
X368867Y289017I-7252J0*
G01X360000Y270000D02*
X370000Y280000D01*
Y290000*
X360983Y271133D02*
G03X364875Y270000I3892J6119D01*
X360983Y268867I0J-7252*
G01X375125Y270000D02*
G03X379017Y271133I0J7252D01*
G01Y268867D02*
G03X375125Y270000I-3892J-6119D01*
G01X360000D02*
X380000D01*
G54D21*
X195100Y290000D02*
G03X195100I-5100J0D01*
G01Y130000D02*
G03X195100I-5100J0D01*
G01X175100Y120000D02*
G03X175100I-5100J0D01*
G01X155100D02*
G03X155100I-5100J0D01*
G01X435100D02*
G03X435100I-5100J0D01*
G01X415100Y135000D02*
G03X415100I-5100J0D01*
G01X315600Y300000D02*
G03X315600I-5600J0D01*
G01X275100D02*
G03X275100I-5100J0D01*
G01X415100Y255000D02*
G03X415100I-5100J0D01*
G01X215100Y225000D02*
G03X215100I-5100J0D01*
G01X275540Y224783D02*
G03X275535Y225495I-353J354D01*
G01X274928Y226661D02*
G03X275535Y225495I2072J339D01*
G01X274928Y226661D02*
G03X274038Y226885I-494J-81D01*
G01X265446Y227703D02*
G03X274038Y226885I4554J2297D01*
G01X265446Y227703D02*
G03X264554I-446J-225D01*
G01X263583Y226371D02*
G03X264554Y227703I-3583J3629D01*
G01X263583Y226371D02*
G03X263581Y225662I352J-356D01*
G01X266096Y223146*
G03X266450Y223000I354J354*
G01X273550*
G03X273904Y223146I0J500*
G01X275540Y224783*
X304500Y243500D02*
Y263172D01*
G03X304354Y263525I-500J-0*
G01X304086Y263793*
X303500Y265207D02*
G03X304086Y263793I2000J0D01*
G01X303500Y265207D02*
Y284689D01*
G03X302754Y285124I-500J-0*
G01X294419Y290459D02*
G03X302754Y285124I5581J-459D01*
G01X294419Y290459D02*
G03X293921Y291000I-498J41D01*
G01X281914*
G03X281561Y290854I0J-500*
G01X280207Y289500*
X264793*
X263439Y290854*
G03X263086Y291000I-353J-354*
G01X262707*
X261293Y291586D02*
G03X262707Y291000I1414J1414D01*
G01X261293Y291586D02*
X256586Y296293D01*
X256000Y297707D02*
G03X256586Y296293I2000J0D01*
G01X256000Y297707D02*
Y298086D01*
G03X255854Y298439I-500J-0*
G01X247439Y306854*
G03X247086Y307000I-353J-354*
G01X145414*
G03X145061Y306854I0J-500*
G01X140646Y302439*
G03X140500Y302086I354J-353*
G01Y282914*
G03X140646Y282561I500J0*
G01X146561Y276646*
G03X146914Y276500I353J354*
G01X159793*
X161207Y275914D02*
G03X159793Y276500I-1414J-1414D01*
G01X161207Y275914D02*
X180914Y256207D01*
X181500Y254793D02*
G03X180914Y256207I-2000J-0D01*
G01X181500Y254793D02*
Y254414D01*
G03X181646Y254061I500J0*
G01X189061Y246646*
G03X189414Y246500I353J354*
G01X204400*
G03X204900Y247000I-0J500*
G01Y253000*
X207000Y255100D02*
G03X204900Y253000I0J-2100D01*
G01X207000Y255100D02*
X213000D01*
X215100Y253000D02*
G03X213000Y255100I-2100J0D01*
G01X215100Y253000D02*
Y247000D01*
G03X215600Y246500I500J0*
G01X218000*
G03X218500Y247000I-0J500*
G01Y292293*
X219086Y293707D02*
G03X218500Y292293I1414J-1414D01*
G01X219086Y293707D02*
X221293Y295914D01*
X222707Y296500D02*
G03X221293Y295914I0J-2000D01*
G01X222707Y296500D02*
X234793D01*
X236207Y295914D02*
G03X234793Y296500I-1414J-1414D01*
G01X236207Y295914D02*
X240914Y291207D01*
X241500Y289793D02*
G03X240914Y291207I-2000J-0D01*
G01X241500Y289793D02*
Y286914D01*
G03X241646Y286561I500J0*
G01X243000Y285207*
Y274372*
G03X243188Y273981I500J-0*
G01X243222Y266047D02*
G03X243187Y273981I-3222J3953D01*
G01X243222Y266047D02*
G03X243043Y265731I316J-388D01*
X243000Y265125I4209J-606*
G01Y251450*
G03X243146Y251096I500J-0*
G01X252121Y242121*
X252987Y240284D02*
G03X252121Y242121I-2987J-284D01*
G01X252987Y240284D02*
G03X253000Y240207I497J47D01*
G01Y240012*
Y240010*
Y240000D02*
G03Y240010I-3000J0D01*
G01Y240000D02*
Y235551D01*
G03X253404Y235061I500J0*
G01X255072Y233339D02*
G03X253404Y235061I-2072J-339D01*
G01X255072Y233339D02*
G03X255962Y233115I494J81D01*
G01X264554Y232297D02*
G03X255962Y233115I-4554J-2297D01*
G01X264554Y232297D02*
G03X265446I446J225D01*
G01X274038Y233115D02*
G03X265446Y232297I-4038J-3115D01*
G01X274038Y233115D02*
G03X274928Y233339I396J305D01*
G01X277000Y235100D02*
G03X274928Y233339I0J-2100D01*
G01X277000Y235100D02*
X280605D01*
G03X280910Y235204I0J500*
X281326Y235568I-2591J3371*
G01X287879Y242121*
X290000Y243000D02*
G03X287879Y242121I0J-3000D01*
G01X290000Y243000D02*
X304000D01*
G03X304500Y243500I0J500*
G01X321000Y103500D02*
Y120500D01*
G03X320500Y121000I-500J-0*
G01X316079*
G03X315581Y120459I0J-500*
G01X306194Y115892D02*
G03X315581Y120459I3806J4108D01*
G01X306194Y115892D02*
G03X305500Y115879I-340J-366D01*
G01X301207Y111586*
X299793Y111000D02*
G03X301207Y111586I-0J2000D01*
G01X299793Y111000D02*
X263000D01*
X261000Y113000D02*
G03X263000Y111000I2000J0D01*
G01X261000Y113000D02*
Y134793D01*
X261586Y136207D02*
G03X261000Y134793I1414J-1414D01*
G01X261586Y136207D02*
X285854Y160475D01*
G03X286000Y160828I-354J353*
G01Y188946*
G03X285009Y189040I-500J0*
G01X283222Y186047D02*
G03X285009Y189040I-3222J3953D01*
G01X283222Y186047D02*
G03X283043Y185731I316J-388D01*
X283000Y185125I4209J-606*
G01Y170000*
X282121Y167879D02*
G03X283000Y170000I-2121J2121D01*
G01X282121Y167879D02*
X272121Y157879D01*
X270000Y157000D02*
G03X272121Y157879I0J3000D01*
G01X270000Y157000D02*
X251450D01*
G03X251096Y156854I-0J-500*
G01X245568Y151326*
G03X245204Y150910I3007J-3007*
X245100Y150605I396J-305*
G01Y147000*
X243000Y144900D02*
G03X245100Y147000I0J2100D01*
G01X243000Y144900D02*
X237000D01*
X234900Y147000D02*
G03X237000Y144900I2100J0D01*
G01X234900Y147000D02*
Y153000D01*
X237000Y155100D02*
G03X234900Y153000I0J-2100D01*
G01X237000Y155100D02*
X240605D01*
G03X240910Y155204I0J500*
X241326Y155568I-2591J3371*
G01X247879Y162121*
X250000Y163000D02*
G03X247879Y162121I0J-3000D01*
G01X250000Y163000D02*
X268550D01*
G03X268904Y163146I0J500*
G01X269828Y164071*
G03X269522Y164922I-353J354*
G01X275078Y170478D02*
G03X269522Y164922I-5078J-478D01*
G01X275078Y170478D02*
G03X275929Y170172I497J47D01*
G01X276854Y171096*
G03X277000Y171450I-354J354*
G01Y185125*
G03X276957Y185731I-4252J0*
X276778Y186047I-495J-72*
G01X275446Y187703D02*
G03X276778Y186047I4554J2297D01*
G01X275446Y187703D02*
G03X274554I-446J-225D01*
G01X265446D02*
G03X274554I4554J2297D01*
G01X265446D02*
G03X264554I-446J-225D01*
G01X255446D02*
G03X264554I4554J2297D01*
G01X255446D02*
G03X254554I-446J-225D01*
G01X251821Y185236D02*
G03X254554Y187703I-1821J4764D01*
G01X251821Y185236D02*
G03X251500Y184769I179J-467D01*
G01Y177707*
X250914Y176293D02*
G03X251500Y177707I-1414J1414D01*
G01X250914Y176293D02*
X226646Y152025D01*
G03X226500Y151672I354J-353*
G01Y145828*
G03X226646Y145475I500J0*
G01X233414Y138707*
X234000Y137293D02*
G03X233414Y138707I-2000J-0D01*
G01X234000Y137293D02*
Y133333D01*
G03X234098Y133036I500J0*
G01X233187Y126019D02*
G03X234098Y133036I-3187J3981D01*
G01X233188Y126019D02*
G03X233000Y125628I312J-391D01*
G01Y124500*
X229328*
G03X228975Y124354I0J-500*
G01X228707Y124086*
X227293Y123500D02*
G03X228707Y124086I-0J2000D01*
G01X227293Y123500D02*
X220207D01*
X218793Y124086D02*
G03X220207Y123500I1414J1414D01*
G01X218793Y124086D02*
X214086Y128793D01*
X213500Y130207D02*
G03X214086Y128793I2000J0D01*
G01X213500Y130207D02*
Y160271D01*
G03X212732Y160694I-500J0*
G01Y169306D02*
G03Y160694I-2732J-4306D01*
G01Y169306D02*
G03X213500Y169729I268J423D01*
G01Y171672*
G03X213354Y172025I-500J-0*
G01X207025Y178354*
G03X206672Y178500I-353J-354*
G01X196914*
G03X196561Y178354I0J-500*
G01X186646Y168439*
G03X186500Y168086I354J-353*
G01Y167707*
X185914Y166293D02*
G03X186500Y167707I-1414J1414D01*
G01X185914Y166293D02*
X166207Y146586D01*
X164793Y146000D02*
G03X166207Y146586I-0J2000D01*
G01X164793Y146000D02*
X164414D01*
G03X164061Y145854I0J-500*
G01X143146Y124939*
G03X143000Y124586I354J-353*
G01Y105414*
G03X143146Y105061I500J0*
G01X145061Y103146*
G03X145414Y103000I353J354*
G01X320500*
G03X321000Y103500I-0J500*
G01X266417Y193629D02*
G03X266419Y194338I-352J356D01*
G01X263904Y196854*
G03X263550Y197000I-354J-354*
G01X260000*
X256450*
G03X256096Y196854I-0J-500*
G01X253581Y194338*
G03X253583Y193629I354J-353*
G01X254554Y192297D02*
G03X253583Y193629I-4554J-2297D01*
G01X254554Y192297D02*
G03X255446I446J225D01*
G01X264554D02*
G03X255446I-4554J-2297D01*
G01X264554D02*
G03X265446I446J225D01*
G01X266417Y193629D02*
G03X265446Y192297I3583J-3629D01*
G01X457000Y137914D02*
Y182270D01*
G03X456178Y182652I-500J-0*
G01X444140Y197604D02*
G03X456178Y182652I5860J-7604D01*
G01X444140Y197604D02*
G03X443835Y198500I-305J396D01*
G01X434500*
G03X434000Y198000I0J-500*
G01Y175124*
G03X434212Y174715I500J-0*
G01X435100Y173000D02*
G03X434212Y174715I-2100J0D01*
G01X435100Y173000D02*
Y167000D01*
X434212Y165285D02*
G03X435100Y167000I-1212J1715D01*
G01X434212Y165285D02*
G03X434000Y164876I288J-409D01*
G01Y160207*
X433414Y158793D02*
G03X434000Y160207I-1414J1414D01*
G01X433414Y158793D02*
X418707Y144086D01*
X417293Y143500D02*
G03X418707Y144086I-0J2000D01*
G01X417293Y143500D02*
X400207D01*
X398793Y144086D02*
G03X400207Y143500I1414J1414D01*
G01X398793Y144086D02*
X394086Y148793D01*
X393500Y150207D02*
G03X394086Y148793I2000J0D01*
G01X393500Y150207D02*
Y193000D01*
G03X393000Y193500I-500J-0*
G01X364729*
G03X364306Y192732I-0J-500*
G01X355694D02*
G03X364306I4306J-2732D01*
G01X355694D02*
G03X355271Y193500I-423J268D01*
G01X321934*
G03X321440Y193083I-0J-500*
G01X298560D02*
G03X321440I11440J1917D01*
G01X298560D02*
G03X298066Y193500I-494J-83D01*
G01X293500*
G03X293000Y193000I0J-500*
G01Y173500*
G03X293500Y173000I500J0*
G01X335125*
G03X335731Y173043I0J4252*
X336047Y173222I-72J495*
G01X337703Y174554D02*
G03X336047Y173222I2297J-4554D01*
G01X337703Y174554D02*
G03Y175446I-225J446D01*
G01X342297D02*
G03X337703I-2297J4554D01*
G01X342297D02*
G03Y174554I225J-446D01*
G01X343953Y173222D02*
G03X342297Y174554I-3953J-3222D01*
G01X343953Y173222D02*
G03X344269Y173043I388J316D01*
X344875Y173000I606J4209*
G01X375125*
G03X375731Y173043I0J4252*
X376047Y173222I-72J495*
G01X376885Y174038D02*
G03X376047Y173222I3115J-4038D01*
G01X376885Y174038D02*
G03X376661Y174928I-305J396D01*
G01X374900Y177000D02*
G03X376661Y174928I2100J0D01*
G01X374900Y177000D02*
Y183000D01*
X377000Y185100D02*
G03X374900Y183000I0J-2100D01*
G01X377000Y185100D02*
X383000D01*
X385100Y183000D02*
G03X383000Y185100I-2100J0D01*
G01X385100Y183000D02*
Y177000D01*
X383339Y174928D02*
G03X385100Y177000I-339J2072D01*
G01X383339Y174928D02*
G03X383115Y174038I81J-494D01*
G01X382297Y165446D02*
G03X383115Y174038I-2297J4554D01*
G01X382297Y165446D02*
G03Y164554I225J-446D01*
G01X379483Y154926D02*
G03X382297Y164554I517J5074D01*
G01X379483Y154926D02*
G03X379133Y154829I-50J-497D01*
X378674Y154432I2548J-3404*
G01X372121Y147879*
X370000Y147000D02*
G03X372121Y147879I0J3000D01*
G01X370000Y147000D02*
X365551D01*
G03X365061Y146596I0J-500*
G01X363404Y144939D02*
G03X365061Y146596I-404J2061D01*
G01X363404Y144939D02*
G03X363000Y144449I96J-490D01*
G01Y141450*
G03X363146Y141096I500J-0*
G01X368674Y135568*
G03X369133Y135171I3007J3007*
X369483Y135074I300J400*
G01X364926Y130517D02*
G03X369483Y135074I5074J-517D01*
G01X364926Y130517D02*
G03X364829Y130867I-497J50D01*
X364432Y131326I-3404J-2548*
G01X357879Y137879*
X357000Y140000D02*
G03X357879Y137879I3000J0D01*
G01X357000Y140000D02*
Y144449D01*
G03X356596Y144939I-500J-0*
G01X354939Y146596D02*
G03X356596Y144939I2061J404D01*
G01X354939Y146596D02*
G03X354449Y147000I-490J-96D01*
G01X344875*
G03X344269Y146957I0J-4252*
X343953Y146778I72J-495*
G01X339483Y144926D02*
G03X343953Y146778I517J5074D01*
G01X339483Y144926D02*
G03X339133Y144829I-50J-497D01*
X338674Y144432I2548J-3404*
G01X332121Y137879*
X330000Y137000D02*
G03X332121Y137879I0J3000D01*
G01X330000Y137000D02*
X311450D01*
G03X311096Y136854I-0J-500*
G01X306718Y132475*
G03X305615Y131018I4715J-4716*
X305555Y130710I436J-245*
G01X300710Y135555D02*
G03X305555Y130710I-710J-5555D01*
G01X300710Y135555D02*
G03X301018Y135615I63J496D01*
X302475Y136718I-3259J5818*
G01X307879Y142121*
X310000Y143000D02*
G03X307879Y142121I0J-3000D01*
G01X310000Y143000D02*
X328550D01*
G03X328904Y143146I0J500*
G01X334432Y148674*
G03X334829Y149133I-3007J3007*
X334926Y149483I-400J300*
G01X343953Y153222D02*
G03X334926Y149483I-3953J-3222D01*
G01X343953Y153222D02*
G03X344269Y153043I388J316D01*
X344875Y153000I606J4209*
G01X354449*
G03X354939Y153404I-0J500*
G01X357000Y155100D02*
G03X354939Y153404I0J-2100D01*
G01X357000Y155100D02*
X363000D01*
X365061Y153404D02*
G03X363000Y155100I-2061J-404D01*
G01X365061Y153404D02*
G03X365551Y153000I490J96D01*
G01X368550*
G03X368904Y153146I0J500*
G01X374432Y158674*
G03X374829Y159133I-3007J3007*
X374926Y159483I-400J300*
G01X377703Y164554D02*
G03X374926Y159483I2297J-4554D01*
G01X377703Y164554D02*
G03Y165446I-225J446D01*
G01X376047Y166778D02*
G03X377703Y165446I3953J3222D01*
G01X376047Y166778D02*
G03X375731Y166957I-388J-316D01*
X375125Y167000I-606J-4209*
G01X344875*
G03X344269Y166957I0J-4252*
X343953Y166778I72J-495*
G01X336047D02*
G03X343953I3953J3222D01*
G01X336047D02*
G03X335731Y166957I-388J-316D01*
X335125Y167000I-606J-4209*
G01X290000*
X289571Y167031D02*
G03X290000Y167000I429J2969D01*
G01X289571Y167031D02*
G03X289000Y166536I-71J-495D01*
G01Y160207*
X288414Y158793D02*
G03X289000Y160207I-1414J1414D01*
G01X288414Y158793D02*
X264146Y134525D01*
G03X264000Y134172I354J-353*
G01Y123714*
G03X264981Y123577I500J0*
G01X267000Y125100D02*
G03X264981Y123577I0J-2100D01*
G01X267000Y125100D02*
X273000D01*
X275100Y123000D02*
G03X273000Y125100I-2100J0D01*
G01X275100Y123000D02*
Y117000D01*
X273577Y114981D02*
G03X275100Y117000I-577J2019D01*
G01X273577Y114981D02*
G03X273714Y114000I137J-481D01*
G01X299172*
G03X299525Y114146I-0J500*
G01X304297Y118918*
G03X304440Y119332I-353J354*
G01X313781Y124131D02*
G03X304440Y119332I-3781J-4131D01*
G01X313781Y124131D02*
G03X314118Y124000I337J369D01*
G01X317362*
G03X317578Y124951I-0J500*
G01X324859Y132784D02*
G03X317578Y124951I-4859J-2784D01*
G01X324859Y132784D02*
G03X325713Y132762I434J249D01*
G01Y127238D02*
G03Y132762I4287J2762D01*
G01Y127238D02*
G03X324859Y127216I-420J-271D01*
G01X322314Y124900D02*
G03X324859Y127216I-2314J5100D01*
G01X322314Y124900D02*
G03X322417Y123956I207J-455D01*
G01X324000Y122000D02*
G03X322417Y123956I-2000J0D01*
G01X324000Y122000D02*
Y103500D01*
G03X324500Y103000I500J0*
G01X422086*
G03X422439Y103146I-0J500*
G01X456854Y137561*
G03X457000Y137914I-354J353*
G01Y197730D02*
Y199000D01*
G03X456500Y199500I-500J0*
G01X454584*
G03X454357Y198554I-0J-500*
G01X456178Y197348D02*
G03X454357Y198554I-6178J-7348D01*
G01X456178Y197348D02*
G03X457000Y197730I322J382D01*
G01X266286Y114000D02*
G03X266423Y114981I-0J500D01*
G01X264981Y116423D02*
G03X266423Y114981I2019J577D01*
G01X264981Y116423D02*
G03X264000Y116286I-481J-137D01*
G01Y114500*
G03X264500Y114000I500J0*
G01X266286*
X457000Y221000D02*
Y222270D01*
G03X456178Y222652I-500J-0*
G01X454357Y221446D02*
G03X456178Y222652I-4357J8554D01*
G01X454357Y221446D02*
G03X454584Y220500I227J-446D01*
G01X456500*
G03X457000Y221000I0J500*
G01Y237730D02*
Y279586D01*
G03X456854Y279939I-500J-0*
G01X435954Y300839*
G03X435100Y300486I-354J-353*
G01Y297000*
X433000Y294900D02*
G03X435100Y297000I0J2100D01*
G01X433000Y294900D02*
X427000D01*
X424900Y297000D02*
G03X427000Y294900I2100J0D01*
G01X424900Y297000D02*
Y303000D01*
X427000Y305100D02*
G03X424900Y303000I0J-2100D01*
G01X427000Y305100D02*
X430486D01*
G03X430839Y305954I-0J500*
G01X429939Y306854*
G03X429586Y307000I-353J-354*
G01X260414*
G03X260061Y306854I0J-500*
G01X258146Y304939*
G03X258000Y304586I354J-353*
G01Y299328*
G03X258146Y298975I500J0*
G01X263975Y293146*
G03X264328Y293000I353J354*
G01X280672*
G03X281025Y293146I-0J500*
G01X281293Y293414*
X282707Y294000D02*
G03X281293Y293414I0J-2000D01*
G01X282707Y294000D02*
X295882D01*
G03X296219Y294131I-0J500*
G01X303781D02*
G03X296219I-3781J-4131D01*
G01X303781D02*
G03X304118Y294000I337J369D01*
G01X304500*
X306500Y292000D02*
G03X304500Y294000I-2000J0D01*
G01X306500Y292000D02*
Y264414D01*
G03X306646Y264061I500J0*
G01X327561Y243146*
G03X327914Y243000I353J354*
G01X330000*
X332121Y242121D02*
G03X330000Y243000I-2121J-2121D01*
G01X332121Y242121D02*
X334071Y240172D01*
G03X334922Y240478I354J353*
G01X337703Y244554D02*
G03X334922Y240478I2297J-4554D01*
G01X337703Y244554D02*
G03Y245446I-225J446D01*
G01X343953Y253222D02*
G03X337703Y245446I-3953J-3222D01*
G01X343953Y253222D02*
G03X344269Y253043I388J316D01*
X344875Y253000I606J4209*
G01X374449*
G03X374939Y253404I-0J500*
G01X376661Y255072D02*
G03X374939Y253404I339J-2072D01*
G01X376661Y255072D02*
G03X376885Y255962I-81J494D01*
G01X377703Y264554D02*
G03X376885Y255962I2297J-4554D01*
G01X377703Y264554D02*
G03Y265446I-225J446D01*
G01X376047Y266778D02*
G03X377703Y265446I3953J3222D01*
G01X376047Y266778D02*
G03X375731Y266957I-388J-316D01*
X375125Y267000I-606J-4209*
G01X364875*
G03X364269Y266957I0J-4252*
X363953Y266778I72J-495*
G01X356047D02*
G03X363953I3953J3222D01*
G01X356047D02*
G03X355731Y266957I-388J-316D01*
X355125Y267000I-606J-4209*
G01X344875*
G03X344269Y266957I0J-4252*
X343953Y266778I72J-495*
G01X334926Y270517D02*
G03X343953Y266778I5074J-517D01*
G01X334926Y270517D02*
G03X334829Y270867I-497J50D01*
X334432Y271326I-3404J-2548*
G01X322475Y283282*
G03X321018Y284385I-4716J-4715*
X320710Y284445I-245J-436*
G01X324859Y292784D02*
G03X320710Y284445I-4859J-2784D01*
G01X324859Y292784D02*
G03X325713Y292762I434J249D01*
G01X330478Y284922D02*
G03X325713Y292762I-478J5078D01*
G01X330478Y284922D02*
G03X330172Y284071I47J-497D01*
G01X338674Y275568*
G03X339133Y275171I3007J3007*
X339483Y275074I300J400*
G01X343953Y273222D02*
G03X339483Y275074I-3953J-3222D01*
G01X343953Y273222D02*
G03X344269Y273043I388J316D01*
X344875Y273000I606J4209*
G01X355125*
G03X355731Y273043I0J4252*
X356047Y273222I-72J495*
G01X360517Y275074D02*
G03X356047Y273222I-517J-5074D01*
G01X360517Y275074D02*
G03X360867Y275171I50J497D01*
X361326Y275568I-2548J3404*
G01X366854Y281096*
G03X367000Y281450I-354J354*
G01Y285125*
G03X366957Y285731I-4252J0*
X366778Y286047I-495J-72*
G01X373222D02*
G03X366778I-3222J3953D01*
G01X373222D02*
G03X373043Y285731I316J-388D01*
X373000Y285125I4209J-606*
G01Y280000*
X372121Y277879D02*
G03X373000Y280000I-2121J2121D01*
G01X372121Y277879D02*
X368096Y273854D01*
G03X368450Y273000I354J-354*
G01X375125*
G03X375731Y273043I0J4252*
X376047Y273222I-72J495*
G01X382297Y265446D02*
G03X376047Y273222I-2297J4554D01*
G01X382297Y265446D02*
G03Y264554I225J-446D01*
G01X383115Y255962D02*
G03X382297Y264554I-3115J4038D01*
G01X383115Y255962D02*
G03X383339Y255072I305J-396D01*
G01X385100Y253000D02*
G03X383339Y255072I-2100J0D01*
G01X385100Y253000D02*
Y248428D01*
G03X385954Y248075I500J0*
G01X403793Y265914*
X405207Y266500D02*
G03X403793Y265914I0J-2000D01*
G01X405207Y266500D02*
X427293D01*
X428707Y265914D02*
G03X427293Y266500I-1414J-1414D01*
G01X428707Y265914D02*
X433414Y261207D01*
X434000Y259793D02*
G03X433414Y261207I-2000J-0D01*
G01X434000Y259793D02*
Y253333D01*
G03X434098Y253036I500J0*
G01Y246964D02*
G03Y253036I-4098J3036D01*
G01Y246964D02*
G03X434000Y246667I402J-297D01*
G01Y222000*
G03X434500Y221500I500J0*
G01X443835*
G03X444140Y222396I-0J500*
G01X456178Y237348D02*
G03X444140Y222396I-6178J-7348D01*
G01X456178Y237348D02*
G03X457000Y237730I322J382D01*
G01X371904Y246146D02*
G03X371550Y247000I-354J354D01*
G01X344875*
G03X344269Y246957I0J-4252*
X343953Y246778I72J-495*
G01X342297Y245446D02*
G03X343953Y246778I-2297J4554D01*
G01X342297Y245446D02*
G03Y244554I225J-446D01*
G01X340478Y234922D02*
G03X342297Y244554I-478J5078D01*
G01X340478Y234922D02*
G03X340172Y234071I47J-497D01*
G01X351096Y223146*
G03X351450Y223000I354J354*
G01X358550*
G03X358904Y223146I0J500*
G01X359804Y224046*
G03X359450Y224900I-354J354*
G01X357000*
X354900Y227000D02*
G03X357000Y224900I2100J0D01*
G01X354900Y227000D02*
Y233000D01*
X357000Y235100D02*
G03X354900Y233000I0J-2100D01*
G01X357000Y235100D02*
X363000D01*
X365100Y233000D02*
G03X363000Y235100I-2100J0D01*
G01X365100Y233000D02*
Y230550D01*
G03X365954Y230196I500J-0*
G01X366854Y231096*
G03X367000Y231450I-354J354*
G01Y240000*
X367879Y242121D02*
G03X367000Y240000I2121J-2121D01*
G01X367879Y242121D02*
X371904Y246146D01*
X159500Y176828D02*
Y183172D01*
G03X159354Y183525I-500J-0*
G01X150177Y192702*
G03X149337Y192232I-354J-354*
G01X134558Y197909D02*
G03X149337Y192232I5442J-7909D01*
G01X134558Y197909D02*
G03X134520Y198757I-283J412D01*
G01X133900Y199300D02*
G03X134520Y198757I1600J1200D01*
G01X133900Y199300D02*
G03X133500Y199500I-400J-300D01*
G01X132000*
Y204545*
G03X131921Y204815I-500J-0*
G01Y215185D02*
G03Y204815I8079J-5185D01*
G01Y215185D02*
G03X132000Y215455I-421J270D01*
G01Y218500*
G03X131800Y218900I-500J-0*
G01X131000Y220500D02*
G03X131800Y218900I2000J0D01*
G01X131000Y220500D02*
Y226571D01*
G03X130970Y226740I-500J-0*
G01Y233260D02*
G03Y226740I9030J-3260D01*
G01Y233260D02*
G03X131000Y233429I-470J169D01*
G01Y239793*
X131586Y241207D02*
G03X131000Y239793I1414J-1414D01*
G01X131586Y241207D02*
X136293Y245914D01*
X137707Y246500D02*
G03X136293Y245914I0J-2000D01*
G01X137707Y246500D02*
X145271D01*
G03X145694Y247268I0J500*
G01X149040Y255009D02*
G03X145694Y247268I960J-5009D01*
G01X149040Y255009D02*
G03X148946Y256000I-94J491D01*
G01X130828*
G03X130475Y255854I0J-500*
G01X114146Y239525*
G03X114000Y239172I354J-353*
G01Y195828*
G03X114146Y195475I500J0*
G01X132975Y176646*
G03X133328Y176500I353J354*
G01X134793*
X136207Y175914D02*
G03X134793Y176500I-1414J-1414D01*
G01X136207Y175914D02*
X136475Y175646D01*
G03X136828Y175500I353J354*
G01X137707*
X144046Y169161*
G03X144900Y169514I354J353*
G01Y173000*
X147000Y175100D02*
G03X144900Y173000I0J-2100D01*
G01X147000Y175100D02*
X153000D01*
X155100Y173000D02*
G03X153000Y175100I-2100J0D01*
G01X155100Y173000D02*
Y168428D01*
G03X155954Y168075I500J0*
G01X158354Y170475*
G03X158500Y170828I-354J353*
G01Y174793*
X159086Y176207D02*
G03X158500Y174793I1414J-1414D01*
G01X159086Y176207D02*
X159354Y176475D01*
G03X159500Y176828I-354J353*
G01X184500Y169328D02*
Y178000D01*
G03X184000Y178500I-500J-0*
G01X165207*
X164651Y178579D02*
G03X165207Y178500I556J1921D01*
G01X164651Y178579D02*
G03X164159Y178452I-138J-481D01*
G01X161646Y175939*
G03X161500Y175586I354J-353*
G01Y170207*
X160914Y168793D02*
G03X161500Y170207I-1414J1414D01*
G01X160914Y168793D02*
X156207Y164086D01*
X154793Y163500D02*
G03X156207Y164086I-0J2000D01*
G01X154793Y163500D02*
X147707D01*
X146293Y164086D02*
G03X147707Y163500I1414J1414D01*
G01X146293Y164086D02*
X146025Y164354D01*
G03X145672Y164500I-353J-354*
G01X144793*
X135939Y173354*
G03X135586Y173500I-353J-354*
G01X132707*
X131293Y174086D02*
G03X132707Y173500I1414J1414D01*
G01X131293Y174086D02*
X111586Y193793D01*
X111000Y195207D02*
G03X111586Y193793I2000J0D01*
G01X111000Y195207D02*
Y242293D01*
X111586Y243707D02*
G03X111000Y242293I1414J-1414D01*
G01X111586Y243707D02*
X128793Y260914D01*
X130207Y261500D02*
G03X128793Y260914I0J-2000D01*
G01X130207Y261500D02*
X149793D01*
X151207Y260914D02*
G03X149793Y261500I-1414J-1414D01*
G01X151207Y260914D02*
X155914Y256207D01*
X156500Y254793D02*
G03X155914Y256207I-2000J-0D01*
G01X156500Y254793D02*
Y251914D01*
G03X156646Y251561I500J0*
G01X158207Y250000*
X156646Y248439*
G03X156500Y248086I354J-353*
G01Y245500*
X154500Y243500D02*
G03X156500Y245500I0J2000D01*
G01X154500Y243500D02*
X138328D01*
G03X137975Y243354I0J-500*
G01X134146Y239525*
G03X134000Y239172I354J-353*
G01Y238471*
G03X134772Y238052I500J0*
G01X145860Y222396D02*
G03X134772Y238052I-5860J7604D01*
G01X145860Y222396D02*
G03X146165Y221500I305J-396D01*
G01X146672*
G03X147025Y221646I-0J500*
G01X169492Y244113*
G03X169215Y244961I-354J354*
G01X175079Y249536D02*
G03X169215Y244961I-5079J464D01*
G01X175079Y249536D02*
G03X175930Y249138I498J-45D01*
G01X175930D02*
X179354Y252561D01*
G03X179500Y252914I-354J353*
G01Y253172*
G03X179354Y253525I-500J-0*
G01X159525Y273354*
G03X159172Y273500I-353J-354*
G01X147707*
X146293Y274086D02*
G03X147707Y273500I1414J1414D01*
G01X146293Y274086D02*
X146025Y274354D01*
G03X145672Y274500I-353J-354*
G01X130414*
G03X130061Y274354I0J-500*
G01X105646Y249939*
G03X105500Y249586I354J-353*
G01Y175414*
G03X105646Y175061I500J0*
G01X132561Y148146*
G03X132914Y148000I353J354*
G01X163172*
G03X163525Y148146I-0J500*
G01X184354Y168975*
G03X184500Y169328I-354J353*
G01X444140Y217604D02*
G03X443835Y218500I-305J396D01*
G01X433000*
X431000Y220500D02*
G03X433000Y218500I2000J0D01*
G01X431000Y220500D02*
Y244422D01*
G03X430455Y244920I-500J0*
G01Y255080D02*
G03Y244920I-455J-5080D01*
G01Y255080D02*
G03X431000Y255578I45J498D01*
G01Y259172*
G03X430854Y259525I-500J-0*
G01X427025Y263354*
G03X426672Y263500I-353J-354*
G01X405828*
G03X405475Y263354I0J-500*
G01X373146Y231025*
G03X373000Y230672I354J-353*
G01Y230000*
X372121Y227879D02*
G03X373000Y230000I-2121J2121D01*
G01X372121Y227879D02*
X362121Y217879D01*
X360000Y217000D02*
G03X362121Y217879I0J3000D01*
G01X360000Y217000D02*
X350000D01*
X347879Y217879D02*
G03X350000Y217000I2121J2121D01*
G01X347879Y217879D02*
X345929Y219828D01*
G03X345078Y219522I-354J-353*
G01X339522Y225078D02*
G03X345078Y219522I478J-5078D01*
G01X339522Y225078D02*
G03X339828Y225929I-47J497D01*
G01X338586Y227172*
G03X337879I-354J-354*
G01X330207Y219500*
X320508*
G03X320073Y219248I-0J-500*
G01X299927D02*
G03X320073I10073J5752D01*
G01X299927D02*
G03X299492Y219500I-435J-248D01*
G01X278950*
G03X278596Y219354I-0J-500*
G01X277121Y217879*
X275000Y217000D02*
G03X277121Y217879I0J3000D01*
G01X275000Y217000D02*
X265000D01*
X262879Y217879D02*
G03X265000Y217000I2121J2121D01*
G01X262879Y217879D02*
X257879Y222879D01*
X257000Y225000D02*
G03X257879Y222879I3000J0D01*
G01X257000Y225000D02*
Y225125D01*
G03X256957Y225731I-4252J0*
X256778Y226047I-495J-72*
G01X255962Y226885D02*
G03X256778Y226047I4038J3115D01*
G01X255962Y226885D02*
G03X255072Y226661I-396J-305D01*
G01X253000Y224900D02*
G03X255072Y226661I0J2100D01*
G01X253000Y224900D02*
X247000D01*
X245385Y225658D02*
G03X247000Y224900I1615J1342D01*
G01X245385Y225658D02*
G03X244615I-385J-319D01*
G01X243000Y224900D02*
G03X244615Y225658I0J2100D01*
G01X243000Y224900D02*
X237000D01*
X234900Y227000D02*
G03X237000Y224900I2100J0D01*
G01X234900Y227000D02*
Y233000D01*
X237000Y235100D02*
G03X234900Y233000I0J-2100D01*
G01X237000Y235100D02*
X243000D01*
X244615Y234342D02*
G03X243000Y235100I-1615J-1342D01*
G01X244615Y234342D02*
G03X245385I385J319D01*
G01X246596Y235061D02*
G03X245385Y234342I404J-2061D01*
G01X246596Y235061D02*
G03X247000Y235551I-96J490D01*
G01Y238550*
G03X246854Y238904I-500J0*
G01X237879Y247879*
X237000Y250000D02*
G03X237879Y247879I3000J0D01*
G01X237000Y250000D02*
Y265125D01*
G03X236957Y265731I-4252J0*
X236778Y266047I-495J-72*
G01X239089Y275018D02*
G03X236778Y266047I911J-5018D01*
G01X239089Y275018D02*
G03X239500Y275510I-89J492D01*
G01Y285672*
G03X239354Y286025I-500J-0*
G01X237025Y288354*
G03X236672Y288500I-353J-354*
G01X235231*
G03X234764Y288179I-0J-500*
G01X225236D02*
G03X234764I4764J1821D01*
G01X225236D02*
G03X224769Y288500I-467J-179D01*
G01X222000*
G03X221500Y288000I0J-500*
G01Y240500*
X219500Y238500D02*
G03X221500Y240500I0J2000D01*
G01X219500Y238500D02*
X195207D01*
X193793Y239086D02*
G03X195207Y238500I1414J1414D01*
G01X193793Y239086D02*
X188525Y244354D01*
G03X188172Y244500I-353J-354*
G01X174328*
G03X173975Y244354I0J-500*
G01X148707Y219086*
X147293Y218500D02*
G03X148707Y219086I-0J2000D01*
G01X147293Y218500D02*
X146165D01*
G03X145860Y217604I0J-500*
G01X145559Y202174D02*
G03X145860Y217604I-5559J7826D01*
G01X145559Y202174D02*
G03X145638Y201313I290J-408D01*
G01X146207Y200914D02*
G03X145638Y201313I-1414J-1414D01*
G01X146207Y200914D02*
X160914Y186207D01*
X161500Y184793D02*
G03X160914Y186207I-2000J-0D01*
G01X161500Y184793D02*
Y184414D01*
G03X161646Y184061I500J0*
G01X164159Y181548*
G03X164651Y181421I354J354*
G01X165207Y181500D02*
G03X164651Y181421I0J-2000D01*
G01X165207Y181500D02*
X184500D01*
X186100Y180700D02*
G03X184500Y181500I-1600J-1200D01*
G01X186100Y180700D02*
G03X186500Y180500I400J300D01*
G01X195672*
G03X196025Y180646I-0J500*
G01X196293Y180914*
X197707Y181500D02*
G03X196293Y180914I0J-2000D01*
G01X197707Y181500D02*
X207293D01*
X208707Y180914D02*
G03X207293Y181500I-1414J-1414D01*
G01X208707Y180914D02*
X215914Y173707D01*
X216500Y172293D02*
G03X215914Y173707I-2000J-0D01*
G01X216500Y172293D02*
Y130828D01*
G03X216646Y130475I500J0*
G01X220475Y126646*
G03X220828Y126500I353J354*
G01X225271*
G03X225694Y127268I0J500*
G01X230455Y135080D02*
G03X225694Y127268I-455J-5080D01*
G01X230455Y135080D02*
G03X231000Y135578I45J498D01*
G01Y136672*
G03X230854Y137025I-500J-0*
G01X224086Y143793*
X223500Y145207D02*
G03X224086Y143793I2000J0D01*
G01X223500Y145207D02*
Y152293D01*
X224086Y153707D02*
G03X223500Y152293I1414J-1414D01*
G01X224086Y153707D02*
X248354Y177975D01*
G03X248500Y178328I-354J353*
G01Y184769*
G03X248179Y185236I-500J0*
G01X245446Y187703D02*
G03X248179Y185236I4554J2297D01*
G01X245446Y187703D02*
G03X244554I-446J-225D01*
G01Y192297D02*
G03Y187703I-4554J-2297D01*
G01Y192297D02*
G03X245446I446J225D01*
G01X246778Y193953D02*
G03X245446Y192297I3222J-3953D01*
G01X246778Y193953D02*
G03X246957Y194269I-316J388D01*
X247000Y194875I-4209J606*
G01Y195000*
X247879Y197121D02*
G03X247000Y195000I2121J-2121D01*
G01X247879Y197121D02*
X248742Y197984D01*
G03X248810Y198070I-354J354*
G01X249430Y198690D02*
G03X248810Y198070I1070J-1690D01*
G01X249430Y198690D02*
G03X249516Y198758I-268J422D01*
G01X252879Y202121*
X255000Y203000D02*
G03X252879Y202121I0J-3000D01*
G01X255000Y203000D02*
X260000D01*
X265000*
X267121Y202121D02*
G03X265000Y203000I-2121J-2121D01*
G01X267121Y202121D02*
X269646Y199596D01*
G03X270354I354J354*
G01X272879Y202121*
X275000Y203000D02*
G03X272879Y202121I0J-3000D01*
G01X275000Y203000D02*
X285000D01*
X287121Y202121D02*
G03X285000Y203000I-2121J-2121D01*
G01X287121Y202121D02*
X292121Y197121D01*
X292462Y196714D02*
G03X292121Y197121I-2462J-1714D01*
G01X292462Y196714D02*
G03X292872Y196500I410J286D01*
G01X298066*
G03X298560Y196917I0J500*
G01X321440D02*
G03X298560I-11440J-1917D01*
G01X321440D02*
G03X321934Y196500I494J83D01*
G01X335271*
G03X335694Y197268I0J500*
G01X344306D02*
G03X335694I-4306J2732D01*
G01X344306D02*
G03X344729Y196500I423J-268D01*
G01X394500*
X396500Y194500D02*
G03X394500Y196500I-2000J0D01*
G01X396500Y194500D02*
Y150828D01*
G03X396646Y150475I500J0*
G01X400475Y146646*
G03X400828Y146500I353J354*
G01X416672*
G03X417025Y146646I-0J500*
G01X430854Y160475*
G03X431000Y160828I-354J353*
G01Y164400*
G03X430500Y164900I-500J-0*
G01X427000*
X424900Y167000D02*
G03X427000Y164900I2100J0D01*
G01X424900Y167000D02*
Y173000D01*
X427000Y175100D02*
G03X424900Y173000I0J-2100D01*
G01X427000Y175100D02*
X430500D01*
G03X431000Y175600I-0J500*
G01Y199500*
X433000Y201500D02*
G03X431000Y199500I0J-2000D01*
G01X433000Y201500D02*
X443835D01*
G03X444140Y202396I-0J500*
G01Y217604D02*
G03Y202396I5860J-7604D01*
G01X275100Y253000D02*
Y247000D01*
X273000Y244900D02*
G03X275100Y247000I0J2100D01*
G01X273000Y244900D02*
X267000D01*
X264900Y247000D02*
G03X267000Y244900I2100J0D01*
G01X264900Y247000D02*
Y253000D01*
X267000Y255100D02*
G03X264900Y253000I0J-2100D01*
G01X267000Y255100D02*
X273000D01*
X275100Y253000D02*
G03X273000Y255100I-2100J0D01*
G01X217063Y265000D02*
Y259000D01*
X215562Y257500D02*
G03X217063Y259000I0J1500D01*
G01X215562Y257500D02*
X204562D01*
X203062Y259000D02*
G03X204562Y257500I1500J0D01*
G01X203062Y259000D02*
Y265000D01*
X204562Y266500D02*
G03X203062Y265000I0J-1500D01*
G01X204562Y266500D02*
X215562D01*
X217063Y265000D02*
G03X215562Y266500I-1501J0D01*
G01X195100Y290000D02*
G03X195100I-5100J0D01*
G01X175100Y303000D02*
Y297000D01*
X173000Y294900D02*
G03X175100Y297000I0J2100D01*
G01X173000Y294900D02*
X167000D01*
X164900Y297000D02*
G03X167000Y294900I2100J0D01*
G01X164900Y297000D02*
Y303000D01*
X167000Y305100D02*
G03X164900Y303000I0J-2100D01*
G01X167000Y305100D02*
X173000D01*
X175100Y303000D02*
G03X173000Y305100I-2100J0D01*
G01X155100Y303000D02*
Y297000D01*
X153000Y294900D02*
G03X155100Y297000I0J2100D01*
G01X153000Y294900D02*
X147000D01*
X144900Y297000D02*
G03X147000Y294900I2100J0D01*
G01X144900Y297000D02*
Y303000D01*
X147000Y305100D02*
G03X144900Y303000I0J-2100D01*
G01X147000Y305100D02*
X153000D01*
X155100Y303000D02*
G03X153000Y305100I-2100J0D01*
G01X195100Y130000D02*
G03X195100I-5100J0D01*
G01X175100Y120000D02*
G03X175100I-5100J0D01*
G01X155100D02*
G03X155100I-5100J0D01*
G01X435100D02*
G03X435100I-5100J0D01*
G01X415100Y135000D02*
G03X415100I-5100J0D01*
G01X416813Y290000D02*
Y284000D01*
X415528Y282516D02*
G03X416813Y284000I-216J1484D01*
G01X415528Y282516D02*
G03X415100Y282021I72J-495D01*
G01Y277000*
X413000Y274900D02*
G03X415100Y277000I0J2100D01*
G01X413000Y274900D02*
X407000D01*
X404900Y277000D02*
G03X407000Y274900I2100J0D01*
G01X404900Y277000D02*
Y282000D01*
G03X404400Y282500I-500J-0*
G01X404312*
X402812Y284000D02*
G03X404312Y282500I1500J0D01*
G01X402812Y284000D02*
Y290000D01*
X404312Y291500D02*
G03X402812Y290000I0J-1500D01*
G01X404312Y291500D02*
X415312D01*
X416813Y290000D02*
G03X415312Y291500I-1501J0D01*
G01X315600Y300000D02*
G03X315600I-5600J0D01*
G01X275100D02*
G03X275100I-5100J0D01*
G01X175100Y173000D02*
Y167000D01*
X173000Y164900D02*
G03X175100Y167000I0J2100D01*
G01X173000Y164900D02*
X167000D01*
X164900Y167000D02*
G03X167000Y164900I2100J0D01*
G01X164900Y167000D02*
Y173000D01*
X167000Y175100D02*
G03X164900Y173000I0J-2100D01*
G01X167000Y175100D02*
X173000D01*
X175100Y173000D02*
G03X173000Y175100I-2100J0D01*
G01X416813Y170000D02*
Y164000D01*
X415528Y162516D02*
G03X416813Y164000I-216J1484D01*
G01X415528Y162516D02*
G03X415100Y162021I72J-495D01*
G01Y157000*
X413000Y154900D02*
G03X415100Y157000I0J2100D01*
G01X413000Y154900D02*
X407000D01*
X404900Y157000D02*
G03X407000Y154900I2100J0D01*
G01X404900Y157000D02*
Y162000D01*
G03X404400Y162500I-500J-0*
G01X404312*
X402812Y164000D02*
G03X404312Y162500I1500J0D01*
G01X402812Y164000D02*
Y170000D01*
X404312Y171500D02*
G03X402812Y170000I0J-1500D01*
G01X404312Y171500D02*
X415312D01*
X416813Y170000D02*
G03X415312Y171500I-1501J0D01*
G01X415100Y255000D02*
G03X415100I-5100J0D01*
G01X215100Y193000D02*
Y187000D01*
X213000Y184900D02*
G03X215100Y187000I0J2100D01*
G01X213000Y184900D02*
X207000D01*
X204900Y187000D02*
G03X207000Y184900I2100J0D01*
G01X204900Y187000D02*
Y193000D01*
X207000Y195100D02*
G03X204900Y193000I0J-2100D01*
G01X207000Y195100D02*
X213000D01*
X215100Y193000D02*
G03X213000Y195100I-2100J0D01*
G01X217063Y205000D02*
Y199000D01*
X215562Y197500D02*
G03X217063Y199000I0J1500D01*
G01X215562Y197500D02*
X204562D01*
X203062Y199000D02*
G03X204562Y197500I1500J0D01*
G01X203062Y199000D02*
Y205000D01*
X204562Y206500D02*
G03X203062Y205000I0J-1500D01*
G01X204562Y206500D02*
X215562D01*
X217063Y205000D02*
G03X215562Y206500I-1501J0D01*
G01X215100Y225000D02*
G03X215100I-5100J0D01*
G54D22*
G01X413606Y251394D02*
X412121Y252879D01*
X413606Y258606D02*
X412121Y257121D01*
X406394Y258606D02*
X407879Y257121D01*
X406394Y251394D02*
X407879Y252879D01*
X426394Y253606D02*
X427879Y252121D01*
X426394Y246394D02*
X427879Y247879D01*
X443212Y216788D02*
X444697Y215303D01*
X443212Y203212D02*
X444697Y204697D01*
X425515Y165515D02*
X427879Y167879D01*
X425515Y174485D02*
X427879Y172121D01*
X414485Y155515D02*
X412121Y157879D01*
X405515Y155515D02*
X407879Y157879D01*
X343606Y216394D02*
X342121Y217879D01*
X336394Y223606D02*
X337879Y222121D01*
X336394Y216394D02*
X337879Y217879D01*
X343606Y203606D02*
X342121Y202121D01*
X336394Y203606D02*
X337879Y202121D01*
X236394Y193606D02*
X237879Y192121D01*
X236394Y186394D02*
X237879Y187879D01*
X243606Y186394D02*
X242121Y187879D01*
X243606Y193606D02*
X242121Y192121D01*
X226394Y133606D02*
X227879Y132121D01*
X235515Y234485D02*
X237879Y232121D01*
X244485Y234485D02*
X242121Y232121D01*
X244485Y225515D02*
X242121Y227879D01*
X235515Y225515D02*
X237879Y227879D01*
X226394Y286394D02*
X227879Y287879D01*
X233606Y286394D02*
X232121Y287879D01*
X213606Y221394D02*
X212121Y222879D01*
X213606Y228606D02*
X212121Y227121D01*
X206394Y228606D02*
X207879Y227121D01*
X206394Y221394D02*
X207879Y222879D01*
X214485Y185515D02*
X212121Y187879D01*
X205515Y185515D02*
X207879Y187879D01*
X205515Y194485D02*
X207879Y192121D01*
X214485Y194485D02*
X212121Y192121D01*
X146788Y203212D02*
X145303Y204697D01*
X146788Y216788D02*
X145303Y215303D01*
X193606Y293606D02*
X192121Y292121D01*
X186394Y293606D02*
X187879Y292121D01*
X186394Y286394D02*
X187879Y287879D01*
X193606Y286394D02*
X192121Y287879D01*
X296040Y286040D02*
X297525Y287525D01*
X174485Y295515D02*
X172121Y297879D01*
X165515Y295515D02*
X167879Y297879D01*
X165515Y304485D02*
X167879Y302121D01*
X174485Y304485D02*
X172121Y302121D01*
X205515Y254485D02*
X207879Y252121D01*
X214485Y254485D02*
X212121Y252121D01*
X266394Y233606D02*
X267879Y232121D01*
X273606Y233606D02*
X272121Y232121D01*
X266394Y226394D02*
X267879Y227879D01*
X273606Y226394D02*
X272121Y227879D01*
X265515Y254485D02*
X267879Y252121D01*
X274485Y254485D02*
X272121Y252121D01*
X274485Y245515D02*
X272121Y247879D01*
X265515Y245515D02*
X267879Y247879D01*
X154485Y295515D02*
X152121Y297879D01*
X145515Y295515D02*
X147879Y297879D01*
X145515Y304485D02*
X147879Y302121D01*
X154485Y304485D02*
X152121Y302121D01*
X186394Y126394D02*
X187879Y127879D01*
X193606Y126394D02*
X192121Y127879D01*
X193606Y133606D02*
X192121Y132121D01*
X186394Y133606D02*
X187879Y132121D01*
X306040Y116040D02*
X307525Y117525D01*
X313960Y116040D02*
X312475Y117525D01*
X173606Y116394D02*
X172121Y117879D01*
X173606Y123606D02*
X172121Y122121D01*
X166394Y123606D02*
X167879Y122121D01*
X166394Y116394D02*
X167879Y117879D01*
X206394Y168606D02*
X207879Y167121D01*
X206394Y161394D02*
X207879Y162879D01*
X256394Y193606D02*
X257879Y192121D01*
X263606Y193606D02*
X262121Y192121D01*
X256394Y186394D02*
X257879Y187879D01*
X263606Y186394D02*
X262121Y187879D01*
X266394Y173606D02*
X267879Y172121D01*
X266394Y166394D02*
X267879Y167879D01*
X273606Y173606D02*
X272121Y172121D01*
X153606Y116394D02*
X152121Y117879D01*
X153606Y123606D02*
X152121Y122121D01*
X146394Y123606D02*
X147879Y122121D01*
X146394Y116394D02*
X147879Y117879D01*
X265515Y124485D02*
X267879Y122121D01*
X274485Y124485D02*
X272121Y122121D01*
X274485Y115515D02*
X272121Y117879D01*
X265515Y115515D02*
X267879Y117879D01*
X323960Y133960D02*
X322475Y132475D01*
X316040Y133960D02*
X317525Y132475D01*
X316040Y126040D02*
X317525Y127525D01*
X323960Y126040D02*
X322475Y127525D01*
X413606Y131394D02*
X412121Y132879D01*
X413606Y138606D02*
X412121Y137121D01*
X406394Y138606D02*
X407879Y137121D01*
X406394Y131394D02*
X407879Y132879D01*
X456788Y183212D02*
X455303Y184697D01*
X443212Y196788D02*
X444697Y195303D01*
X443212Y183212D02*
X444697Y184697D01*
X456788Y196788D02*
X455303Y195303D01*
X356394Y186394D02*
X357879Y187879D01*
X363606Y186394D02*
X362121Y187879D01*
X343606Y176394D02*
X342121Y177879D01*
X343606Y183606D02*
X342121Y182121D01*
X336394Y183606D02*
X337879Y182121D01*
X336394Y176394D02*
X337879Y177879D01*
X333606Y133606D02*
X332121Y132121D01*
X326394Y133606D02*
X327879Y132121D01*
X326394Y126394D02*
X327879Y127879D01*
X333606Y126394D02*
X332121Y127879D01*
X433606Y116394D02*
X432121Y117879D01*
X433606Y123606D02*
X432121Y122121D01*
X426394Y123606D02*
X427879Y122121D01*
X426394Y116394D02*
X427879Y117879D01*
X306040Y296040D02*
X307525Y297525D01*
X313960Y296040D02*
X312475Y297525D01*
X313960Y303960D02*
X312475Y302475D01*
X306040Y303960D02*
X307525Y302475D01*
X266394Y303606D02*
X267879Y302121D01*
X266394Y296394D02*
X267879Y297879D01*
X273606Y296394D02*
X272121Y297879D01*
X273606Y303606D02*
X272121Y302121D01*
X414485Y275515D02*
X412121Y277879D01*
X405515Y275515D02*
X407879Y277879D01*
X343606Y236394D02*
X342121Y237879D01*
X343606Y243606D02*
X342121Y242121D01*
X336394Y243606D02*
X337879Y242121D01*
X456788Y223212D02*
X455303Y224697D01*
X456788Y236788D02*
X455303Y235303D01*
X443212Y236788D02*
X444697Y235303D01*
X443212Y223212D02*
X444697Y224697D01*
X333606Y286394D02*
X332121Y287879D01*
X333606Y293606D02*
X332121Y292121D01*
X326394Y293606D02*
X327879Y292121D01*
X434485Y295515D02*
X432121Y297879D01*
X425515Y295515D02*
X427879Y297879D01*
X425515Y304485D02*
X427879Y302121D01*
X355515Y234485D02*
X357879Y232121D01*
X364485Y234485D02*
X362121Y232121D01*
X355515Y225515D02*
X357879Y227879D01*
X145515Y174485D02*
X147879Y172121D01*
X154485Y174485D02*
X152121Y172121D01*
X133212Y196788D02*
X134697Y195303D01*
X133212Y183212D02*
X134697Y184697D01*
X146788Y183212D02*
X145303Y184697D01*
X146394Y253606D02*
X147879Y252121D01*
X146788Y223212D02*
X145303Y224697D01*
X146788Y236788D02*
X145303Y235303D01*
X173606Y253606D02*
X172121Y252121D01*
X166394Y253606D02*
X167879Y252121D01*
X166394Y246394D02*
X167879Y247879D01*
X174485Y165515D02*
X172121Y167879D01*
X165515Y165515D02*
X167879Y167879D01*
X165515Y174485D02*
X167879Y172121D01*
X174485Y174485D02*
X172121Y172121D01*
G74*
X0Y0D02*
M02*
