%
T1C.035F197S55
X015Y012
X017Y012
X019Y013
X021Y0165
X023Y013
X024Y015
X027Y012
X034Y015
X036Y015
X041Y016
X041Y0135
X043Y012
X043Y017
X036Y019
X034Y018
X034Y017
X034Y02
X028Y019
X027Y017
X025Y019
X024Y019
X021Y019
X017Y017
X015Y017
X015Y025
X017Y025
X021Y0225
X021Y025
X024Y023
X025Y023
X027Y025
X028Y023
X034Y024
X034Y022
X034Y025
X036Y023
X041Y0255
X043Y025
X043Y03
X041Y028
X036Y027
X034Y027
X027Y03
X024Y027
X023Y029
X019Y029
X017Y03
X015Y03
T2C.037F197S55
X026Y019
X027Y019
X033Y013
X037Y013
X038Y018
X038Y017
X038Y016
X038Y025
X038Y026
X038Y027
X037Y029
X033Y029
X027Y023
X026Y023
T3C.04F139S55
X03Y013
X031Y012
X032Y013
X032Y029
X031Y03
X03Y029
T4C.052F107S55
X014Y019
X014Y021
X045Y021
X045Y019
X045Y023
X014Y023
T5C.15F035S9
X031Y0195
X031Y0225
M30
