*
*
G04 PADS 9.5 Build Number: 522968 generated Gerber (RS-274-X) file*
G04 PC Version=2.1*
*
%IN "TP5copia2.pcb"*%
*
%MOIN*%
*
%FSLAX35Y35*%
*
*
*
*
G04 PC Standard Apertures*
*
*
G04 Thermal Relief Aperture macro.*
%AMTER*
1,1,$1,0,0*
1,0,$1-$2,0,0*
21,0,$3,$4,0,0,45*
21,0,$3,$4,0,0,135*
%
*
*
G04 Annular Aperture macro.*
%AMANN*
1,1,$1,0,0*
1,0,$2,0,0*
%
*
*
G04 Odd Aperture macro.*
%AMODD*
1,1,$1,0,0*
1,0,$1-0.005,0,0*
%
*
*
G04 PC Custom Aperture Macros*
*
*
*
*
*
*
G04 PC Aperture Table*
*
%ADD010C,0.001*%
%ADD011R,0.07X0.07*%
%ADD012C,0.07*%
%ADD013C,0.16*%
%ADD014C,0.08*%
%ADD015C,0.2*%
*
*
*
*
G04 PC Circuitry*
G04 Layer Name TP5copia2.pcb - circuitry*
%LPD*%
*
*
G04 PC Custom Flashes*
G04 Layer Name TP5copia2.pcb - flashes*
%LPD*%
*
*
G04 PC Circuitry*
G04 Layer Name TP5copia2.pcb - circuitry*
%LPD*%
*
G54D10*
G54D11*
G01X150000Y170000D03*
Y300000D03*
X170000D03*
Y170000D03*
X250000Y230000D03*
X240000D03*
Y150000D03*
X280000Y230000D03*
X270000Y250000D03*
Y120000D03*
X360000Y230000D03*
Y150000D03*
X430000Y300000D03*
Y170000D03*
X380000Y180000D03*
X210000Y250000D03*
Y190000D03*
X410000Y280000D03*
Y160000D03*
X380000Y250000D03*
G54D12*
X150000Y120000D03*
Y250000D03*
X170000D03*
Y120000D03*
X250000Y190000D03*
X240000Y270000D03*
Y190000D03*
X280000D03*
X270000Y300000D03*
Y170000D03*
X360000Y270000D03*
Y190000D03*
X430000Y250000D03*
Y120000D03*
X270000Y190000D03*
Y230000D03*
X260000Y190000D03*
Y230000D03*
X370000Y290000D03*
X330000D03*
Y130000D03*
X370000D03*
X380000Y170000D03*
Y160000D03*
X210000Y225000D03*
Y165000D03*
X190000Y290000D03*
X230000D03*
Y130000D03*
X190000D03*
X410000Y255000D03*
Y135000D03*
X340000Y240000D03*
Y220000D03*
Y200000D03*
Y180000D03*
Y270000D03*
Y250000D03*
Y170000D03*
Y150000D03*
X380000Y260000D03*
Y270000D03*
G54D13*
X140000Y190000D03*
Y210000D03*
Y230000D03*
X450000D03*
Y210000D03*
Y190000D03*
G54D14*
X320000Y290000D03*
X310000Y300000D03*
X300000Y290000D03*
Y130000D03*
X310000Y120000D03*
X320000Y130000D03*
G54D15*
X310000Y225000D03*
Y195000D03*
X0Y0D02*
M02*
