*
*
G04 PADS 9.5 Build Number: 522968 generated Gerber (RS-274-X) file*
G04 PC Version=2.1*
*
%IN "TP5copia2.pcb"*%
*
%MOIN*%
*
%FSLAX35Y35*%
*
*
*
*
G04 PC Standard Apertures*
*
*
G04 Thermal Relief Aperture macro.*
%AMTER*
1,1,$1,0,0*
1,0,$1-$2,0,0*
21,0,$3,$4,0,0,45*
21,0,$3,$4,0,0,135*
%
*
*
G04 Annular Aperture macro.*
%AMANN*
1,1,$1,0,0*
1,0,$2,0,0*
%
*
*
G04 Odd Aperture macro.*
%AMODD*
1,1,$1,0,0*
1,0,$1-0.005,0,0*
%
*
*
G04 PC Custom Aperture Macros*
*
*
*
*
*
*
G04 PC Aperture Table*
*
%ADD010C,0.001*%
%ADD021C,0.01*%
*
*
*
*
G04 PC Circuitry*
G04 Layer Name TP5copia2.pcb - circuitry*
%LPD*%
*
*
G04 PC Custom Flashes*
G04 Layer Name TP5copia2.pcb - flashes*
%LPD*%
*
*
G04 PC Circuitry*
G04 Layer Name TP5copia2.pcb - circuitry*
%LPD*%
*
G54D10*
G54D21*
G01X150000Y160000D02*
Y165000D01*
X155000Y153000D02*
X145000D01*
Y160000D02*
X155000D01*
Y130000*
X145000*
Y160000*
X150000Y130000D02*
Y125000D01*
X145000Y155000D02*
X155000D01*
X145000Y154000D02*
X155000D01*
X150000Y290000D02*
Y295000D01*
X155000Y283000D02*
X145000D01*
Y290000D02*
X155000D01*
Y260000*
X145000*
Y290000*
X150000Y260000D02*
Y255000D01*
X145000Y285000D02*
X155000D01*
X145000Y284000D02*
X155000D01*
X170000Y290000D02*
Y295000D01*
X175000Y283000D02*
X165000D01*
Y290000D02*
X175000D01*
Y260000*
X165000*
Y290000*
X170000Y260000D02*
Y255000D01*
X165000Y285000D02*
X175000D01*
X165000Y284000D02*
X175000D01*
X170000Y160000D02*
Y165000D01*
X175000Y153000D02*
X165000D01*
Y160000D02*
X175000D01*
Y130000*
X165000*
Y160000*
X170000Y130000D02*
Y125000D01*
X165000Y155000D02*
X175000D01*
X165000Y154000D02*
X175000D01*
X255000Y215000D02*
X245000D01*
X255000Y214000D02*
X245000D01*
X250000Y200000D02*
Y195000D01*
X245000Y220000D02*
X255000D01*
Y200000*
X245000*
Y220000*
X250000D02*
Y226000D01*
X255000Y216000D02*
X245000D01*
X235000Y245000D02*
X245000D01*
X235000Y246000D02*
X245000D01*
X240000Y260000D02*
Y265000D01*
X245000Y240000D02*
X235000D01*
Y260000*
X245000*
Y240000*
X240000D02*
Y234000D01*
X235000Y244000D02*
X245000D01*
X235000Y165000D02*
X245000D01*
X235000Y166000D02*
X245000D01*
X240000Y180000D02*
Y185000D01*
X245000Y160000D02*
X235000D01*
Y180000*
X245000*
Y160000*
X240000D02*
Y154000D01*
X235000Y164000D02*
X245000D01*
X285000Y215000D02*
X275000D01*
X285000Y214000D02*
X275000D01*
X280000Y200000D02*
Y195000D01*
X275000Y220000D02*
X285000D01*
Y200000*
X275000*
Y220000*
X280000D02*
Y226000D01*
X285000Y216000D02*
X275000D01*
X270000Y260000D02*
Y255000D01*
X265000Y267000D02*
X275000D01*
Y260000D02*
X265000D01*
Y290000*
X275000*
Y260000*
X270000Y290000D02*
Y295000D01*
X275000Y265000D02*
X265000D01*
X275000Y266000D02*
X265000D01*
X270000Y130000D02*
Y125000D01*
X265000Y137000D02*
X275000D01*
Y130000D02*
X265000D01*
Y160000*
X275000*
Y130000*
X270000Y160000D02*
Y165000D01*
X275000Y135000D02*
X265000D01*
X275000Y136000D02*
X265000D01*
X355000Y245000D02*
X365000D01*
X355000Y246000D02*
X365000D01*
X360000Y260000D02*
Y265000D01*
X365000Y240000D02*
X355000D01*
Y260000*
X365000*
Y240000*
X360000D02*
Y234000D01*
X355000Y244000D02*
X365000D01*
X355000Y165000D02*
X365000D01*
X355000Y166000D02*
X365000D01*
X360000Y180000D02*
Y185000D01*
X365000Y160000D02*
X355000D01*
Y180000*
X365000*
Y160000*
X360000D02*
Y154000D01*
X355000Y164000D02*
X365000D01*
X430000Y290000D02*
Y295000D01*
X435000Y283000D02*
X425000D01*
Y290000D02*
X435000D01*
Y260000*
X425000*
Y290000*
X430000Y260000D02*
Y255000D01*
X425000Y285000D02*
X435000D01*
X425000Y284000D02*
X435000D01*
X430000Y160000D02*
Y165000D01*
X435000Y153000D02*
X425000D01*
Y160000D02*
X435000D01*
Y130000*
X425000*
Y160000*
X430000Y130000D02*
Y125000D01*
X425000Y155000D02*
X435000D01*
X425000Y154000D02*
X435000D01*
X273000Y200000D02*
X267000D01*
Y220000*
X273000*
Y200000*
X270000D02*
Y194000D01*
Y220000D02*
Y225000D01*
X263000Y200000D02*
X257000D01*
Y220000*
X263000*
Y200000*
X260000D02*
Y194000D01*
Y220000D02*
Y225000D01*
X360000Y293000D02*
Y287000D01*
X340000*
Y293000*
X360000*
Y290000D02*
X366000D01*
X340000D02*
X335000D01*
X340000Y127000D02*
Y133000D01*
X360000*
Y127000*
X340000*
Y130000D02*
X334000D01*
X360000D02*
X365000D01*
X386000Y180000D02*
G75*
G03X386000I-6000J0D01*
G01X385907Y187600D02*
G03X385907I-707J0D01*
G01X386907Y186500D02*
G03X386907I-707J0D01*
G01X372000Y189000D02*
Y150000D01*
X388000*
Y186000*
X385000Y189000*
X372000*
X230000Y237500D02*
G03X230000I-20000J0D01*
G01Y177500D02*
G03X230000I-20000J0D01*
G01X186000Y278000D02*
Y302000D01*
X234000*
Y278000*
X186000*
X234000Y142000D02*
Y118000D01*
X186000*
Y142000*
X234000*
X415000Y255000D02*
G03Y280000I-6674J12500D01*
G01X405000D02*
G03Y255000I6674J-12500D01*
G01X415000Y135000D02*
G03Y160000I-6674J12500D01*
G01X405000D02*
G03Y135000I6674J-12500D01*
G01X335500Y244500D02*
X344500D01*
Y215500*
X335500*
Y244500*
Y204500D02*
X344500D01*
Y175500*
X335500*
Y204500*
X335000Y269500D02*
Y250500D01*
X345000D02*
Y269500D01*
X335000Y169500D02*
Y150500D01*
X345000D02*
Y169500D01*
X132000Y180500D02*
Y239500D01*
X184000*
Y180500*
X132000*
X458000Y239500D02*
Y180500D01*
X406000*
Y239500*
X458000*
X300000Y282500D02*
Y275000D01*
X330000Y240000D02*
X290000D01*
X330000Y275000D02*
X290000D01*
Y215000*
X330000*
Y275000*
X320000Y282500D02*
Y275000D01*
X310000Y292500D02*
Y275000D01*
X320000Y137500D02*
Y145000D01*
X290000Y180000D02*
X330000D01*
X290000Y145000D02*
X330000D01*
Y205000*
X290000*
Y145000*
X300000Y137500D02*
Y145000D01*
X310000Y127500D02*
Y145000D01*
X386000Y250000D02*
G03X386000I-6000J0D01*
G01X375507Y242400D02*
G03X375507I-707J0D01*
G01X374507Y243500D02*
G03X374507I-707J0D01*
G01X388000Y241000D02*
Y280000D01*
X372000*
Y244000*
X375000Y241000*
X388000*
X154063Y147500D02*
X147500D01*
X154063D02*
Y145909D01*
X153750Y145227*
X153125Y144773*
X152500Y144545*
X151563Y144318*
X150000*
X149063Y144545*
X148438Y144773*
X147813Y145227*
X147500Y145909*
Y147500*
X152813Y142273D02*
X153125Y141818D01*
X154063Y141136*
X147500*
X154063Y277500D02*
X147500D01*
X154063D02*
Y275909D01*
X153750Y275227*
X153125Y274773*
X152500Y274545*
X151563Y274318*
X150000*
X149063Y274545*
X148438Y274773*
X147813Y275227*
X147500Y275909*
Y277500*
X152500Y272045D02*
X152813D01*
X153438Y271818*
X153750Y271591*
X154063Y271136*
Y270227*
X153750Y269773*
X153438Y269545*
X152813Y269318*
X152188*
X151563Y269545*
X150625Y270000*
X147500Y272273*
Y269091*
X174063Y277500D02*
X167500D01*
X174063D02*
Y275909D01*
X173750Y275227*
X173125Y274773*
X172500Y274545*
X171563Y274318*
X170000*
X169063Y274545*
X168438Y274773*
X167813Y275227*
X167500Y275909*
Y277500*
X174063Y271818D02*
Y269318D01*
X171563Y270682*
Y270000*
X171250Y269545*
X170938Y269318*
X170000Y269091*
X169375*
X168438Y269318*
X167813Y269773*
X167500Y270455*
Y271136*
X167813Y271818*
X168125Y272045*
X168750Y272273*
X174063Y147500D02*
X167500D01*
X174063D02*
Y145909D01*
X173750Y145227*
X173125Y144773*
X172500Y144545*
X171563Y144318*
X170000*
X169063Y144545*
X168438Y144773*
X167813Y145227*
X167500Y145909*
Y147500*
X174063Y140000D02*
X169688Y142273D01*
Y138864*
X174063Y140000D02*
X167500D01*
X254063Y212500D02*
X247500D01*
X254063D02*
Y210909D01*
X253750Y210227*
X253125Y209773*
X252500Y209545*
X251563Y209318*
X250000*
X249063Y209545*
X248438Y209773*
X247813Y210227*
X247500Y210909*
Y212500*
X254063Y204318D02*
Y206591D01*
X251250Y206818*
X251563Y206591*
X251875Y205909*
Y205227*
X251563Y204545*
X250938Y204091*
X250000Y203864*
X249375Y204091*
X248438Y204318*
X247813Y204773*
X247500Y205455*
Y206136*
X247813Y206818*
X248125Y207045*
X248750Y207273*
X235937Y247500D02*
X242500D01*
X235937D02*
Y249091D01*
X236250Y249773*
X236875Y250227*
X237500Y250455*
X238437Y250682*
X240000*
X240937Y250455*
X241562Y250227*
X242187Y249773*
X242500Y249091*
Y247500*
X236875Y255455D02*
X236250Y255227D01*
X235937Y254545*
Y254091*
X236250Y253409*
X237187Y252955*
X238750Y252727*
X240312*
X241562Y252955*
X242187Y253409*
X242500Y254091*
Y254318*
X242187Y255000*
X241562Y255455*
X240625Y255682*
X240312*
X239375Y255455*
X238750Y255000*
X238437Y254318*
Y254091*
X238750Y253409*
X239375Y252955*
X240312Y252727*
X235937Y167500D02*
X242500D01*
X235937D02*
Y169091D01*
X236250Y169773*
X236875Y170227*
X237500Y170455*
X238437Y170682*
X240000*
X240937Y170455*
X241562Y170227*
X242187Y169773*
X242500Y169091*
Y167500*
X235937Y175909D02*
X242500Y173636D01*
X235937Y172727D02*
Y175909D01*
X284063Y212500D02*
X277500D01*
X284063D02*
Y210909D01*
X283750Y210227*
X283125Y209773*
X282500Y209545*
X281563Y209318*
X280000*
X279063Y209545*
X278438Y209773*
X277813Y210227*
X277500Y210909*
Y212500*
X284063Y206136D02*
X283750Y206818D01*
X283125Y207045*
X282500*
X281875Y206818*
X281563Y206364*
X281250Y205455*
X280938Y204773*
X280313Y204318*
X279688Y204091*
X278750*
X278125Y204318*
X277813Y204545*
X277500Y205227*
Y206136*
X277813Y206818*
X278125Y207045*
X278750Y207273*
X279688*
X280313Y207045*
X280938Y206591*
X281250Y205909*
X281563Y205000*
X281875Y204545*
X282500Y204318*
X283125*
X283750Y204545*
X284063Y205227*
Y206136*
X265937Y270000D02*
X272500D01*
X265937D02*
Y271591D01*
X266250Y272273*
X266875Y272727*
X267500Y272955*
X268437Y273182*
X270000*
X270937Y272955*
X271562Y272727*
X272187Y272273*
X272500Y271591*
Y270000*
X268125Y278182D02*
X269062Y277955D01*
X269687Y277500*
X270000Y276818*
Y276591*
X269687Y275909*
X269062Y275455*
X268125Y275227*
X267812*
X266875Y275455*
X266250Y275909*
X265937Y276591*
Y276818*
X266250Y277500*
X266875Y277955*
X268125Y278182*
X269687*
X271250Y277955*
X272187Y277500*
X272500Y276818*
Y276364*
X272187Y275682*
X271562Y275455*
X265937Y140000D02*
X272500D01*
X265937D02*
Y141591D01*
X266250Y142273*
X266875Y142727*
X267500Y142955*
X268437Y143182*
X270000*
X270937Y142955*
X271562Y142727*
X272187Y142273*
X272500Y141591*
Y140000*
X267187Y145227D02*
X266875Y145682D01*
X265937Y146364*
X272500*
X265937Y149773D02*
X266250Y149091D01*
X267187Y148636*
X268750Y148409*
X269687*
X271250Y148636*
X272187Y149091*
X272500Y149773*
Y150227*
X272187Y150909*
X271250Y151364*
X269687Y151591*
X268750*
X267187Y151364*
X266250Y150909*
X265937Y150227*
Y149773*
X355937Y247500D02*
X362500D01*
X355937D02*
Y249091D01*
X356250Y249773*
X356875Y250227*
X357500Y250455*
X358437Y250682*
X360000*
X360937Y250455*
X361562Y250227*
X362187Y249773*
X362500Y249091*
Y247500*
X357187Y252727D02*
X356875Y253182D01*
X355937Y253864*
X362500*
X357187Y255909D02*
X356875Y256364D01*
X355937Y257045*
X362500*
X355937Y167500D02*
X362500D01*
X355937D02*
Y169091D01*
X356250Y169773*
X356875Y170227*
X357500Y170455*
X358437Y170682*
X360000*
X360937Y170455*
X361562Y170227*
X362187Y169773*
X362500Y169091*
Y167500*
X357187Y172727D02*
X356875Y173182D01*
X355937Y173864*
X362500*
X357500Y176136D02*
X357187D01*
X356562Y176364*
X356250Y176591*
X355937Y177045*
Y177955*
X356250Y178409*
X356562Y178636*
X357187Y178864*
X357812*
X358437Y178636*
X359375Y178182*
X362500Y175909*
Y179091*
X434063Y280000D02*
X427500D01*
X434063D02*
Y278409D01*
X433750Y277727*
X433125Y277273*
X432500Y277045*
X431563Y276818*
X430000*
X429063Y277045*
X428438Y277273*
X427813Y277727*
X427500Y278409*
Y280000*
X432813Y274773D02*
X433125Y274318D01*
X434063Y273636*
X427500*
X434063Y271136D02*
Y268636D01*
X431563Y270000*
Y269318*
X431250Y268864*
X430938Y268636*
X430000Y268409*
X429375*
X428438Y268636*
X427813Y269091*
X427500Y269773*
Y270455*
X427813Y271136*
X428125Y271364*
X428750Y271591*
X434063Y150000D02*
X427500D01*
X434063D02*
Y148409D01*
X433750Y147727*
X433125Y147273*
X432500Y147045*
X431563Y146818*
X430000*
X429063Y147045*
X428438Y147273*
X427813Y147727*
X427500Y148409*
Y150000*
X432813Y144773D02*
X433125Y144318D01*
X434063Y143636*
X427500*
X434063Y139318D02*
X429688Y141591D01*
Y138182*
X434063Y139318D02*
X427500D01*
X265937Y205000D02*
X272500D01*
X265937D02*
Y207045D01*
X266250Y207727*
X266562Y207955*
X267187Y208182*
X267812*
X268437Y207955*
X268750Y207727*
X269062Y207045*
Y205000*
Y206591D02*
X272500Y208182D01*
X267187Y210227D02*
X266875Y210682D01*
X265937Y211364*
X272500*
X255937Y205000D02*
X262500D01*
X255937D02*
Y207045D01*
X256250Y207727*
X256562Y207955*
X257187Y208182*
X257812*
X258437Y207955*
X258750Y207727*
X259062Y207045*
Y205000*
Y206591D02*
X262500Y208182D01*
X257500Y210455D02*
X257187D01*
X256562Y210682*
X256250Y210909*
X255937Y211364*
Y212273*
X256250Y212727*
X256562Y212955*
X257187Y213182*
X257812*
X258437Y212955*
X259375Y212500*
X262500Y210227*
Y213409*
X355000Y285937D02*
Y292500D01*
Y285937D02*
X352955D01*
X352273Y286250*
X352045Y286562*
X351818Y287187*
Y287812*
X352045Y288437*
X352273Y288750*
X352955Y289062*
X355000*
X353409D02*
X351818Y292500D01*
X349318Y285937D02*
X346818D01*
X348182Y288437*
X347500*
X347045Y288750*
X346818Y289062*
X346591Y290000*
Y290625*
X346818Y291562*
X347273Y292187*
X347955Y292500*
X348636*
X349318Y292187*
X349545Y291875*
X349773Y291250*
X345000Y134063D02*
Y127500D01*
Y134063D02*
X347045D01*
X347045D02*
X347727Y133750D01*
X347955Y133438*
X347955D02*
X348182Y132813D01*
X348182D02*
Y132188D01*
X348182D02*
X347955Y131563D01*
X347955D02*
X347727Y131250D01*
X347045Y130938*
X347045D02*
X345000D01*
X346591D02*
X348182Y127500D01*
X352500Y134063D02*
X350227Y129688D01*
X350227D02*
X353636D01*
X352500Y134063D02*
Y127500D01*
X386563Y165000D02*
X380000D01*
X386563D02*
Y162955D01*
X386563D02*
X386250Y162273D01*
X385938Y162045*
X385938D02*
X385313Y161818D01*
X385313D02*
X384688D01*
X384688D02*
X384063Y162045D01*
X384063D02*
X383750Y162273D01*
X383438Y162955*
X383438D02*
Y165000D01*
Y163409D02*
X380000Y161818D01*
X386563Y159773D02*
X380000Y157955D01*
X386563Y156136D02*
X380000Y157955D01*
X385000Y153864D02*
X385313D01*
X385313D02*
X385938Y153636D01*
X385938D02*
X386250Y153409D01*
X386563Y152955*
X386563D02*
Y152045D01*
X386563D02*
X386250Y151591D01*
X385938Y151364*
X385938D02*
X385313Y151136D01*
X385313D02*
X384688D01*
X384688D02*
X384063Y151364D01*
X384063D02*
X383125Y151818D01*
X380000Y154091*
Y150909*
X212500Y239091D02*
X213125Y239318D01*
X213750Y239773*
X214063Y240227*
Y241136*
X213750Y241591*
X213125Y242045*
X212500Y242273*
X211563Y242500*
X210000*
X209063Y242273*
X208438Y242045*
X207813Y241591*
X207500Y241136*
Y240227*
X207813Y239773*
X208438Y239318*
X209063Y239091*
X212813Y237045D02*
X213125Y236591D01*
X214063Y235909*
X207500*
X212500Y179091D02*
X213125Y179318D01*
X213750Y179773*
X214063Y180227*
Y181136*
X213750Y181591*
X213125Y182045*
X212500Y182273*
X211563Y182500*
X210000*
X209063Y182273*
X208438Y182045*
X207813Y181591*
X207500Y181136*
Y180227*
X207813Y179773*
X208438Y179318*
X209063Y179091*
X212500Y176818D02*
X212813D01*
X213438Y176591*
X213750Y176364*
X214063Y175909*
Y175000*
X213750Y174545*
X213438Y174318*
X212813Y174091*
X212188*
X211563Y174318*
X210625Y174773*
X207500Y177045*
Y173864*
X208409Y290000D02*
X208182Y290625D01*
X207727Y291250*
X207273Y291563*
X207273D02*
X206364D01*
X206364D02*
X205909Y291250D01*
X205455Y290625*
X205227Y290000*
X205000Y289063*
X205000D02*
Y287500D01*
X205227Y286563*
X205227D02*
X205455Y285938D01*
X205455D02*
X205909Y285313D01*
X205909D02*
X206364Y285000D01*
X207273*
X207727Y285313*
X207727D02*
X208182Y285938D01*
X208182D02*
X208409Y286563D01*
X210909Y291563D02*
X213409D01*
X213409D02*
X212045Y289063D01*
X212045D02*
X212727D01*
X212727D02*
X213182Y288750D01*
X213409Y288438*
X213409D02*
X213636Y287500D01*
Y286875*
X213409Y285938*
X213409D02*
X212955Y285313D01*
X212955D02*
X212273Y285000D01*
X211591*
X210909Y285313*
X210909D02*
X210682Y285625D01*
X210455Y286250*
X211591Y127500D02*
X211818Y126875D01*
X212273Y126250*
X212727Y125937*
X213636*
X214091Y126250*
X214545Y126875*
X214773Y127500*
X215000Y128437*
Y130000*
X214773Y130937*
X214545Y131562*
X214091Y132187*
X213636Y132500*
X212727*
X212273Y132187*
X211818Y131562*
X211591Y130937*
X207273Y125937D02*
X209545Y130312D01*
X206136*
X207273Y125937D02*
Y132500D01*
X412500Y269091D02*
X413125Y269318D01*
X413750Y269773*
X414063Y270227*
Y271136*
X413750Y271591*
X413125Y272045*
X412500Y272273*
X411563Y272500*
X410000*
X409063Y272273*
X408438Y272045*
X407813Y271591*
X407500Y271136*
Y270227*
X407813Y269773*
X408438Y269318*
X409063Y269091*
X414063Y264091D02*
Y266364D01*
X411250Y266591*
X411563Y266364*
X411875Y265682*
Y265000*
X411563Y264318*
X410938Y263864*
X410000Y263636*
X409375Y263864*
X408438Y264091*
X407813Y264545*
X407500Y265227*
Y265909*
X407813Y266591*
X408125Y266818*
X408750Y267045*
X412500Y149091D02*
X413125Y149318D01*
X413750Y149773*
X414063Y150227*
Y151136*
X413750Y151591*
X413125Y152045*
X412500Y152273*
X411563Y152500*
X410000*
X409063Y152273*
X408438Y152045*
X407813Y151591*
X407500Y151136*
Y150227*
X407813Y149773*
X408438Y149318*
X409063Y149091*
X413125Y144318D02*
X413750Y144545D01*
X414063Y145227*
Y145682*
X413750Y146364*
X412813Y146818*
X411250Y147045*
X409688*
X408438Y146818*
X407813Y146364*
X407500Y145682*
Y145455*
X407813Y144773*
X408438Y144318*
X409375Y144091*
X409688*
X410625Y144318*
X411250Y144773*
X411563Y145455*
Y145682*
X411250Y146364*
X410625Y146818*
X409688Y147045*
X342500Y231591D02*
X343125Y231818D01*
X343750Y232273*
X344063Y232727*
Y233636*
X343750Y234091*
X343125Y234545*
X342500Y234773*
X341563Y235000*
X340000*
X339063Y234773*
X338438Y234545*
X337813Y234091*
X337500Y233636*
Y232727*
X337813Y232273*
X338438Y231818*
X339063Y231591*
X344063Y226364D02*
X337500Y228636D01*
X344063Y229545D02*
Y226364D01*
X342500Y191591D02*
X343125Y191818D01*
X343750Y192273*
X344063Y192727*
Y193636*
X343750Y194091*
X343125Y194545*
X342500Y194773*
X341563Y195000*
X340000*
X339063Y194773*
X338438Y194545*
X337813Y194091*
X337500Y193636*
Y192727*
X337813Y192273*
X338438Y191818*
X339063Y191591*
X344063Y188409D02*
X343750Y189091D01*
X343125Y189318*
X342500*
X341875Y189091*
X341563Y188636*
X341250Y187727*
X340938Y187045*
X340313Y186591*
X339688Y186364*
X338750*
X338125Y186591*
X337813Y186818*
X337500Y187500*
Y188409*
X337813Y189091*
X338125Y189318*
X338750Y189545*
X339688*
X340313Y189318*
X340938Y188864*
X341250Y188182*
X341563Y187273*
X341875Y186818*
X342500Y186591*
X343125*
X343750Y186818*
X344063Y187500*
Y188409*
X342500Y261591D02*
X343125Y261818D01*
X343750Y262273*
X344063Y262727*
Y263636*
X343750Y264091*
X343125Y264545*
X342500Y264773*
X341563Y265000*
X340000*
X339063Y264773*
X338438Y264545*
X337813Y264091*
X337500Y263636*
Y262727*
X337813Y262273*
X338438Y261818*
X339063Y261591*
X341875Y256591D02*
X340938Y256818D01*
X340313Y257273*
X340000Y257955*
Y258182*
X340313Y258864*
X340938Y259318*
X341875Y259545*
X342188*
X343125Y259318*
X343750Y258864*
X344063Y258182*
Y257955*
X343750Y257273*
X343125Y256818*
X341875Y256591*
X340313*
X338750Y256818*
X337813Y257273*
X337500Y257955*
Y258409*
X337813Y259091*
X338438Y259318*
X342500Y161591D02*
X343125Y161818D01*
X343750Y162273*
X344063Y162727*
Y163636*
X343750Y164091*
X343125Y164545*
X342500Y164773*
X341563Y165000*
X340000*
X339063Y164773*
X338438Y164545*
X337813Y164091*
X337500Y163636*
Y162727*
X337813Y162273*
X338438Y161818*
X339063Y161591*
X342813Y159545D02*
X343125Y159091D01*
X344063Y158409*
X337500*
X344063Y155000D02*
X343750Y155682D01*
X342813Y156136*
X341250Y156364*
X340313*
X338750Y156136*
X337813Y155682*
X337500Y155000*
Y154545*
X337813Y153864*
X338750Y153409*
X340313Y153182*
X341250*
X342813Y153409*
X343750Y153864*
X344063Y154545*
Y155000*
X181563Y185227D02*
X176563D01*
X176563D02*
X175625Y185455D01*
X175313Y185682*
X175313D02*
X175000Y186136D01*
Y186591*
X175313Y187045*
X175313D02*
X175625Y187273D01*
X176563Y187500*
X176563D02*
X177188D01*
X180313Y183182D02*
X180625Y182727D01*
X181563Y182045*
X181563D02*
X175000D01*
X408437Y232273D02*
X413437D01*
X413437D02*
X414375Y232045D01*
X414687Y231818*
X414687D02*
X415000Y231364D01*
Y230909*
X414687Y230455*
X414687D02*
X414375Y230227D01*
X413437Y230000*
X413437D02*
X412812D01*
X410000Y234545D02*
X409687D01*
X409687D02*
X409062Y234773D01*
X409062D02*
X408750Y235000D01*
X408437Y235455*
X408437D02*
Y236364D01*
X408437D02*
X408750Y236818D01*
X409062Y237045*
X409062D02*
X409687Y237273D01*
X409687D02*
X410312D01*
X410312D02*
X410937Y237045D01*
X410937D02*
X411875Y236591D01*
X415000Y234318*
Y237500*
X315000Y148437D02*
Y153125D01*
X314773Y154062*
X314773D02*
X314318Y154687D01*
X314318D02*
X313636Y155000D01*
X313182*
X312500Y154687*
X312500D02*
X312045Y154062D01*
X312045D02*
X311818Y153125D01*
Y148437*
X309773Y149687D02*
X309318Y149375D01*
X308636Y148437*
X308636D02*
Y155000D01*
X307500Y271563D02*
Y266875D01*
X307727Y265938*
X307727D02*
X308182Y265313D01*
X308182D02*
X308864Y265000D01*
X309318*
X310000Y265313*
X310000D02*
X310455Y265938D01*
X310455D02*
X310682Y266875D01*
Y271563*
X312955Y270000D02*
Y270313D01*
X312955D02*
X313182Y270938D01*
X313182D02*
X313409Y271250D01*
X313864Y271563*
X313864D02*
X314773D01*
X314773D02*
X315227Y271250D01*
X315455Y270938*
X315455D02*
X315682Y270313D01*
X315682D02*
Y269688D01*
X315682D02*
X315455Y269063D01*
X315455D02*
X315000Y268125D01*
X312727Y265000*
X315909*
X373437D02*
X380000D01*
X373437D02*
Y267045D01*
X373437D02*
X373750Y267727D01*
X374062Y267955*
X374062D02*
X374687Y268182D01*
X374687D02*
X375312D01*
X375312D02*
X375937Y267955D01*
X375937D02*
X376250Y267727D01*
X376562Y267045*
X376562D02*
Y265000D01*
Y266591D02*
X380000Y268182D01*
X373437Y270227D02*
X380000Y272045D01*
X373437Y273864D02*
X380000Y272045D01*
X374687Y275909D02*
X374375Y276364D01*
X373437Y277045*
X373437D02*
X380000D01*
G74*
X0Y0D02*
M02*
